<svg width="129" height="321" viewBox="0 0 129 321" fill="none" xmlns="http://www.w3.org/2000/svg">
<path d="M129 121.169C129 85.2456 100.122 0 64.4999 0C28.8776 0 0 85.2456 0 121.169C0 138.432 6.79551 154.988 18.8916 167.195C30.9877 179.402 47.3935 186.259 64.5 186.259C81.6065 186.259 98.0123 179.402 110.108 167.195C122.204 154.988 129 138.432 129 121.169H129Z" fill="#F2F2F2"/>
<path d="M66.5 321C65.837 321 65.2011 320.725 64.7323 320.235C64.2634 319.745 64 319.081 64 318.389V85.6113C64 84.9188 64.2634 84.2546 64.7322 83.7649C65.2011 83.2752 65.837 83 66.5 83C67.163 83 67.7989 83.2752 68.2678 83.7649C68.7366 84.2546 69 84.9188 69 85.6113V318.389C69 319.081 68.7366 319.745 68.2678 320.235C67.7989 320.725 67.163 321 66.5 321Z" fill="#CCCCCC"/>
<path d="M66.5054 114.892C66.1089 114.892 65.7212 114.771 65.3915 114.545C65.0619 114.319 64.8049 113.997 64.6532 113.621C64.5014 113.245 64.4617 112.831 64.5391 112.432C64.6164 112.032 64.8073 111.665 65.0877 111.377L91.3121 84.4517C91.6881 84.0656 92.1981 83.8486 92.7299 83.8486C93.2616 83.8486 93.7716 84.0656 94.1477 84.4517C94.5237 84.8377 94.7349 85.3614 94.7349 85.9073C94.7349 86.4533 94.5237 86.9769 94.1477 87.363L67.9233 114.289C67.7373 114.48 67.5163 114.632 67.273 114.736C67.0297 114.839 66.7688 114.892 66.5054 114.892Z" fill="#B3B3B3"/>
</svg>
